<svg xmlns="http://www.w3.org/2000/svg" viewBox="0 0 32 32" fill="none">
  <defs>
    <linearGradient id="fav-bg" x1="0" y1="0" x2="32" y2="32" gradientUnits="userSpaceOnUse">
      <stop offset="0%" stop-color="#4f6df5"/>
      <stop offset="100%" stop-color="#3b52cc"/>
    </linearGradient>
  </defs>
  <rect width="32" height="32" rx="6" fill="url(#fav-bg)"/>
  <!-- Simplified B -->
  <rect x="8" y="6.5" width="3" height="19" rx="1.5" fill="white"/>
  <rect x="7" y="6.5" width="5" height="2.5" rx="0.8" fill="white"/>
  <rect x="7" y="14.75" width="5" height="2.5" rx="0.8" fill="white"/>
  <rect x="7" y="23" width="5" height="2.5" rx="0.8" fill="white"/>
  <path d="M11 7.5 H15 C18 7.5 20.5 9.5 20.5 12 C20.5 14.5 18 16.5 15 16.5 H11"
        fill="none" stroke="white" stroke-width="2.5" stroke-linecap="round" stroke-linejoin="round"/>
  <path d="M11 15 H16 C19.5 15 22.5 17.2 22.5 20 C22.5 22.8 19.5 25 16 25 H11"
        fill="none" stroke="white" stroke-width="2.5" stroke-linecap="round" stroke-linejoin="round"/>
  <!-- Signal dot -->
  <circle cx="24" cy="8" r="2.5" fill="#22c55e"/>
</svg>