<svg xmlns="http://www.w3.org/2000/svg" viewBox="0 0 600 140" fill="none">
  <defs>
    <linearGradient id="lg-bg" x1="0" y1="0" x2="120" y2="120" gradientUnits="userSpaceOnUse">
      <stop offset="0%" stop-color="#4f6df5"/>
      <stop offset="100%" stop-color="#3b52cc"/>
    </linearGradient>
    <linearGradient id="lg-b" x1="30" y1="15" x2="90" y2="110" gradientUnits="userSpaceOnUse">
      <stop offset="0%" stop-color="#ffffff"/>
      <stop offset="100%" stop-color="#e0e4ff"/>
    </linearGradient>
    <linearGradient id="lg-sig" x1="80" y1="20" x2="100" y2="40" gradientUnits="userSpaceOnUse">
      <stop offset="0%" stop-color="#22c55e"/>
      <stop offset="100%" stop-color="#16a34a"/>
    </linearGradient>
  </defs>
  <!-- Icon -->
  <rect x="10" y="10" width="120" height="120" rx="24" fill="url(#lg-bg)"/>
  <rect x="12" y="12" width="116" height="116" rx="22" fill="none" stroke="rgba(255,255,255,0.08)" stroke-width="1"/>
  <!-- B spine -->
  <rect x="38" y="30" width="8" height="80" rx="4" fill="url(#lg-b)"/>
  <rect x="34" y="30" width="16" height="8" rx="2" fill="url(#lg-b)"/>
  <rect x="34" y="62" width="16" height="8" rx="2" fill="url(#lg-b)"/>
  <rect x="34" y="102" width="16" height="8" rx="2" fill="url(#lg-b)"/>
  <!-- B top bowl -->
  <path d="M46 32 H62 C74 32 84 40 84 50 C84 60 74 68 62 68 H46"
        fill="none" stroke="url(#lg-b)" stroke-width="8" stroke-linecap="round" stroke-linejoin="round"/>
  <!-- B bottom bowl -->
  <path d="M46 66 H66 C80 66 92 76 92 88 C92 100 80 110 66 110 H46"
        fill="none" stroke="url(#lg-b)" stroke-width="8" stroke-linecap="round" stroke-linejoin="round"/>
  <!-- Signal -->
  <circle cx="92" cy="34" r="5" fill="url(#lg-sig)"/>
  <path d="M95 30 C100 27 104 30 101 35" fill="none" stroke="#22c55e" stroke-width="1.5" stroke-linecap="round" opacity="0.7"/>
  <path d="M99 27 C106 22 112 27 107 34" fill="none" stroke="#22c55e" stroke-width="1.2" stroke-linecap="round" opacity="0.4"/>
  <!-- Wordmark "Baud" -->
  <text x="155" y="92" font-family="Inter, -apple-system, BlinkMacSystemFont, 'Segoe UI', system-ui, sans-serif" font-size="72" font-weight="800" letter-spacing="-3" fill="#e8e8f0">Baud</text>
</svg>