<svg xmlns="http://www.w3.org/2000/svg" viewBox="0 0 512 512" fill="none">
  <defs>
    <linearGradient id="sig-w" x1="340" y1="120" x2="400" y2="180" gradientUnits="userSpaceOnUse">
      <stop offset="0%" stop-color="#22c55e"/>
      <stop offset="100%" stop-color="#16a34a"/>
    </linearGradient>
  </defs>
  <!-- White B on transparent background - for dark backgrounds -->
  <rect x="148" y="108" width="36" height="296" rx="18" fill="white"/>
  <rect x="130" y="108" width="72" height="32" rx="8" fill="white"/>
  <rect x="130" y="240" width="72" height="32" rx="8" fill="white"/>
  <rect x="130" y="372" width="72" height="32" rx="8" fill="white"/>
  <path d="M184 116 H260 C310 116 348 150 348 192 C348 234 310 268 260 268 H184"
        fill="none" stroke="white" stroke-width="32" stroke-linecap="round" stroke-linejoin="round"/>
  <path d="M184 248 H272 C328 248 370 286 370 332 C370 378 328 412 272 412 H184"
        fill="none" stroke="white" stroke-width="32" stroke-linecap="round" stroke-linejoin="round"/>
  <circle cx="380" cy="130" r="22" fill="url(#sig-w)"/>
  <path d="M394 114 C414 100 430 114 414 134" fill="none" stroke="#22c55e" stroke-width="5" stroke-linecap="round" opacity="0.7"/>
  <path d="M406 102 C434 82 458 102 434 130" fill="none" stroke="#22c55e" stroke-width="4" stroke-linecap="round" opacity="0.45"/>
</svg>