<svg xmlns="http://www.w3.org/2000/svg" viewBox="0 0 1200 630" fill="none">
  <defs>
    <linearGradient id="og-bg" x1="0" y1="0" x2="1200" y2="630" gradientUnits="userSpaceOnUse">
      <stop offset="0%" stop-color="#050510"/>
      <stop offset="50%" stop-color="#0a0a1a"/>
      <stop offset="100%" stop-color="#050510"/>
    </linearGradient>
    <linearGradient id="og-logo-bg" x1="0" y1="0" x2="120" y2="120" gradientUnits="userSpaceOnUse">
      <stop offset="0%" stop-color="#7c3aed"/>
      <stop offset="100%" stop-color="#06b6d4"/>
    </linearGradient>
    <radialGradient id="og-glow" cx="600" cy="315" r="400" gradientUnits="userSpaceOnUse">
      <stop offset="0%" stop-color="rgba(139,92,246,0.12)"/>
      <stop offset="100%" stop-color="transparent"/>
    </radialGradient>
    <linearGradient id="og-text-grad" x1="400" y1="200" x2="900" y2="450" gradientUnits="userSpaceOnUse">
      <stop offset="0%" stop-color="#a78bfa"/>
      <stop offset="40%" stop-color="#06b6d4"/>
      <stop offset="100%" stop-color="#22c55e"/>
    </linearGradient>
  </defs>
  <!-- Background -->
  <rect width="1200" height="630" fill="url(#og-bg)"/>
  <rect width="1200" height="630" fill="url(#og-glow)"/>
  <!-- Border -->
  <rect x="1" y="1" width="1198" height="628" rx="0" fill="none" stroke="rgba(26,26,53,0.6)" stroke-width="2"/>
  <!-- Grid pattern (subtle) -->
  <pattern id="grid" width="60" height="60" patternUnits="userSpaceOnUse">
    <rect width="60" height="60" fill="none" stroke="rgba(26,26,53,0.3)" stroke-width="0.5"/>
  </pattern>
  <rect width="1200" height="630" fill="url(#grid)" opacity="0.4"/>
  <!-- Logo icon -->
  <g transform="translate(80, 220)">
    <rect width="120" height="120" rx="24" fill="url(#og-logo-bg)"/>
    <rect x="34" y="28" width="8" height="64" rx="4" fill="white"/>
    <rect x="30" y="28" width="16" height="7" rx="2" fill="white"/>
    <rect x="30" y="56.5" width="16" height="7" rx="2" fill="white"/>
    <rect x="30" y="85" width="16" height="7" rx="2" fill="white"/>
    <path d="M42 31 H55 C64 31 72 37 72 46 C72 55 64 61 55 61 H42"
          fill="none" stroke="white" stroke-width="7" stroke-linecap="round" stroke-linejoin="round"/>
    <path d="M42 58 H58 C69 58 78 65 78 75 C78 85 69 92 58 92 H42"
          fill="none" stroke="white" stroke-width="7" stroke-linecap="round" stroke-linejoin="round"/>
    <circle cx="80" cy="32" r="5" fill="#22c55e"/>
    <path d="M83 28 C88 25 92 28 89 33" fill="none" stroke="#22c55e" stroke-width="1.5" stroke-linecap="round" opacity="0.7"/>
  </g>
  <!-- Title -->
  <text x="230" y="275" font-family="Inter, -apple-system, system-ui, sans-serif" font-size="80" font-weight="800" letter-spacing="-3" fill="#e8e8f0">Baud</text>
  <!-- Tagline -->
  <text x="230" y="328" font-family="Inter, -apple-system, system-ui, sans-serif" font-size="28" font-weight="500" fill="url(#og-text-grad)">The Settlement Layer for AI Agent Economies</text>
  <!-- Feature pills -->
  <g transform="translate(230, 365)">
    <rect width="120" height="36" rx="8" fill="rgba(139,92,246,0.15)" stroke="rgba(139,92,246,0.3)" stroke-width="1"/>
    <text x="60" y="23" text-anchor="middle" font-family="Inter, system-ui, sans-serif" font-size="13" font-weight="600" fill="#a78bfa">Zero Fees</text>
    <rect x="135" width="160" height="36" rx="8" fill="rgba(34,197,94,0.12)" stroke="rgba(34,197,94,0.25)" stroke-width="1"/>
    <text x="215" y="23" text-anchor="middle" font-family="Inter, system-ui, sans-serif" font-size="13" font-weight="600" fill="#22c55e">Bitcoin Mining</text>
    <rect x="310" width="130" height="36" rx="8" fill="rgba(6,182,212,0.12)" stroke="rgba(6,182,212,0.25)" stroke-width="1"/>
    <text x="375" y="23" text-anchor="middle" font-family="Inter, system-ui, sans-serif" font-size="13" font-weight="600" fill="#06b6d4">Safe Rust</text>
    <rect x="455" width="170" height="36" rx="8" fill="rgba(245,166,35,0.12)" stroke="rgba(245,166,35,0.25)" stroke-width="1"/>
    <text x="540" y="23" text-anchor="middle" font-family="Inter, system-ui, sans-serif" font-size="13" font-weight="600" fill="#f5a623">Fair Launch</text>
  </g>
  <!-- URL -->
  <text x="80" y="580" font-family="JetBrains Mono, monospace" font-size="16" font-weight="400" fill="#707088">github.com/NullNaveen/Baud</text>
  <!-- Right side decorative element: mining reward visualization -->
  <g transform="translate(850, 180)" opacity="0.6">
    <text font-family="JetBrains Mono, monospace" font-size="14" fill="#707088" x="0" y="0">Block Rewards</text>
    <rect x="0" y="16" width="240" height="1" fill="rgba(26,26,53,0.8)"/>
    <text font-family="JetBrains Mono, monospace" font-size="13" fill="#f5a623" x="0" y="44">Era 0</text>
    <rect x="60" y="32" width="200" height="8" rx="4" fill="rgba(245,166,35,0.2)"/>
    <rect x="60" y="32" width="200" height="8" rx="4" fill="#f5a623" opacity="0.6"/>
    <text font-family="JetBrains Mono, monospace" font-size="11" fill="#a0a0b8" x="270" y="42">500</text>
    <text font-family="JetBrains Mono, monospace" font-size="13" fill="#f5a623" x="0" y="72">Era 1</text>
    <rect x="60" y="60" width="200" height="8" rx="4" fill="rgba(245,166,35,0.2)"/>
    <rect x="60" y="60" width="100" height="8" rx="4" fill="#f5a623" opacity="0.5"/>
    <text font-family="JetBrains Mono, monospace" font-size="11" fill="#a0a0b8" x="270" y="70">250</text>
    <text font-family="JetBrains Mono, monospace" font-size="13" fill="#f5a623" x="0" y="100">Era 2</text>
    <rect x="60" y="88" width="200" height="8" rx="4" fill="rgba(245,166,35,0.2)"/>
    <rect x="60" y="88" width="50" height="8" rx="4" fill="#f5a623" opacity="0.4"/>
    <text font-family="JetBrains Mono, monospace" font-size="11" fill="#a0a0b8" x="270" y="98">125</text>
    <text font-family="JetBrains Mono, monospace" font-size="13" fill="#f5a623" x="0" y="128">Era 3</text>
    <rect x="60" y="116" width="200" height="8" rx="4" fill="rgba(245,166,35,0.2)"/>
    <rect x="60" y="116" width="25" height="8" rx="4" fill="#f5a623" opacity="0.3"/>
    <text font-family="JetBrains Mono, monospace" font-size="11" fill="#a0a0b8" x="270" y="126">62.5</text>
    <text font-family="JetBrains Mono, monospace" font-size="13" fill="#707088" x="0" y="160">21 halvings → 1B BAUD</text>
  </g>
</svg>